<?xml version="1.0" encoding="UTF-8"?>
<svg id="Layer_1" xmlns="http://www.w3.org/2000/svg" version="1.1" viewBox="0 0 95 60">
  <!-- Generator: Adobe Illustrator 29.1.0, SVG Export Plug-In . SVG Version: 2.1.0 Build 142)  -->
  <defs>
    <style>
      .st0 {
        fill: #003eba;
      }
    </style>
  </defs>
  <path class="st0" d="M69.7,31.2c-.3-2.2,1.1-3.5,2.5-4.1.5-.2,1.1-.3,1.6-.3h2.6c1.7,0,3.1-1.5,3.1-3.4V4.2c0-1.9-1.4-3.4-3.1-3.4H4.6c-1.7,0-3.1,1.5-3.1,3.4v19.2c0,1.9,1.4,3.4,3.1,3.4h33.5c.6,0,1.1,0,1.6.3,1.4.6,2.8,1.9,2.5,4.1,0,1-.6,1.9-1.3,2.5-.8.7-1.8,1-2.8,1h-5.8c-1.7,0-3.1,1.5-3.1,3.4v17.6c0,1.9,1.4,3.4,3.1,3.4h58.1c1.7,0,3.1-1.5,3.1-3.4v-17.6c0-1.9-1.4-3.4-3.1-3.4h-16.6c-1,0-2-.3-2.8-1-.7-.6-1.2-1.4-1.3-2.5Z"/>
</svg>