<?xml version="1.0" encoding="UTF-8"?>
<svg id="Layer_1" xmlns="http://www.w3.org/2000/svg" version="1.1" viewBox="0 0 121 28">
  <!-- Generator: Adobe Illustrator 29.1.0, SVG Export Plug-In . SVG Version: 2.1.0 Build 142)  -->
  <defs>
    <style>
      .st0 {
        fill: #f5f9ff;
      }
    </style>
  </defs>
  <path class="st0" d="M24.21,26.64c-.23,1.33-2.65-.03-3.33-.41C7.66,18.95,14.74-1.65,29.94.98c13,2.24,15.27,20.5,3.23,25.74-.68.3-2.15,1.08-2.27-.07-.22-2.07.57-4.56-.88-6.3,2.02-.32,3.95-.81,5.12-2.62,1.09-1.7,1.38-4.52.53-6.37-.14-.31-.87-1.25-.88-1.37-.03-.27.28-1.14.28-1.54,0-.3-.28-1.75-.43-1.96-.17-.24-1.23.06-1.5.15-.45.15-2.15,1.18-2.28,1.18-.54,0-1.61-.37-2.32-.42-.64-.04-1.56-.04-2.2,0s-1.72.42-2.2.39c-.3-.02-1.03-.61-1.36-.78-.44-.21-2.02-.83-2.4-.58-.34.21-.37,2.23-.34,2.67.01.28.21.65.19.86-.02.15-.88,1.33-1.04,1.79-.63,1.8-.31,4.6.81,6.16,1.2,1.68,3.07,2.07,4.99,2.47-.56.3-.6,1.53-.79,1.79-.17.23-1.57.38-1.9.35-2.13-.21-2.34-3.25-4.5-2.85-.85.16.64.97.82,1.15.92.91.86,2.17,2.14,2.91,1.1.63,2.26.44,3.46.33-.09.78.13,1.83,0,2.58Z"/>
  <path class="st0" d="M54.17,18.92v-3.18h-2.19v-2.96c.2-.05.39-.1.6-.11,1.18-.09,3.22-.09,4.4,0,.18.01.5.02.61.19l-.04,8.22c-2.34,1.36-5.65,1.61-8.16.6-5.77-2.33-5.45-15.39,2-16.02.92-.08,5.16,0,5.6.88.08.15-.55,2.79-.77,2.82-3.66-1.09-6.89-.76-7.2,3.69-.26,3.73.75,6.76,5.16,5.87Z"/>
  <path class="st0" d="M76.12,12.12h4.5v-5.75s.15-.16.16-.16h3.07s.16.15.16.16v15.51c-.11-.04-.24.11-.27.11h-2.96s-.16-.15-.16-.16v-6.63h-4.5v6.68c-.5.13-3.12.23-3.35,0-.07-.07-.11-.2-.14-.3l.03-15.15c.02-.05.2-.22.22-.22h3.07s.16.15.16.16v5.75Z"/>
  <path class="st0" d="M106.79,13.88c-.83-3.18-3.86-3.64-6.53-2.3v-5.09s-.15-.16-.11-.27h-3.29c.04.11-.11.24-.11.27v15.23c0,.38,2.28.36,2.47.16.2-.19.07-.76.33-.66.26.11.67.45,1.04.6,1.45.58,3.83.68,5.04-.45,1.58-1.48,1.69-5.53,1.16-7.5ZM103.66,17.22c-.18,2.48-1.36,2.67-3.49,1.8v-4.74c2.83-1.7,3.68.34,3.49,2.94Z"/>
  <path class="st0" d="M93.18,21.99c-.25-.07-.32-.54-.28-.77-1.83,1.27-5.98,1.74-7.1-.63-.06-.13-.36-1-.36-1.07v-8.27h3.24s.16.15.16.16v7.12s.23.54.28.6c.6.7,2.8.09,2.8-.27v-7.45s.15-.16.16-.16h3.07s.16.15.16.16v10.41s-.15.16-.16.16c-.45,0-1.65.09-1.98,0Z"/>
  <path class="st0" d="M68.88,8.18v3.07h2.25s.16.15.16.16v2.58c-.11-.04-.24.11-.27.11h-2.14v4.66c0,.45,1,.72,1.37.72.33,0,.91-.28,1.03.06.05.15.05,2.12,0,2.27-.15.45-2.43.44-2.88.39-.93-.11-2.01-.64-2.46-1.48-.12-.21-.46-1.22-.46-1.41v-5.21h-1.59c-.28,0-.17-2.02-.11-2.31l1.71-.43v-3.18h3.4Z"/>
  <path class="st0" d="M62.62,11.25l.06,10.42c-.07.31-.4.3-.66.32-.38.03-2.8.1-2.8-.28v-10.3s.15-.16.16-.16h3.24Z"/>
  <path class="st0" d="M60.73,6.56c2.37-.35,2.94,3.37.71,3.79-2.77.51-3.16-3.43-.71-3.79Z"/>
  <path class="st0" d="M24.1,22.64c.17.22-.46.58-.66.33-.17-.22.46-.58.66-.33Z"/>
  <path class="st0" d="M20.51,22.39c-.06-.06-.19-.36-.14-.41.85-.14.56.83.14.41Z"/>
  <path class="st0" d="M21.9,22.97c-.37.04-.61-.03-.55-.44.37-.04.61.03.55.44Z"/>
  <path class="st0" d="M23,22.75c.22.22-.38.71-.55.27-.15-.41.52-.3.55-.27Z"/>
  <path class="st0" d="M20.26,21.66c-.06.06-.38-.02-.44-.16-.21-.58.73-.13.44.16Z"/>
  <path class="st0" d="M19.6,20.56s.07.42-.16.33c-.4-.15-.03-.52.16-.33Z"/>
  <path class="st0" d="M19.05,20.34c-.11.11-.44-.21-.33-.33s.44.21.33.33Z"/>
</svg>