<?xml version="1.0" encoding="UTF-8"?>
<svg id="Layer_1" xmlns="http://www.w3.org/2000/svg" version="1.1" viewBox="0 0 121 28">
  <!-- Generator: Adobe Illustrator 29.1.0, SVG Export Plug-In . SVG Version: 2.1.0 Build 142)  -->
  <defs>
    <style>
      .st0 {
        fill-rule: evenodd;
      }

      .st0, .st1 {
        fill: #f5f9ff;
      }
    </style>
  </defs>
  <path class="st0" d="M80.9,19.67c-.73,0-1.43-.27-1.94-.78-.51-.51-.86-1.3-.86-2.35s.35-1.84.86-2.36c.52-.51,1.22-.78,1.94-.77.73,0,1.43.26,1.94.77.52.52.86,1.29.86,2.36s-.34,1.84-.86,2.36c-.52.51-1.22.78-1.94.77h0ZM80.9,10c-3.72,0-6.54,2.74-6.54,6.54s2.82,6.54,6.54,6.54,6.54-2.76,6.54-6.54-2.82-6.54-6.54-6.54h0ZM49.96,19.76c-.73,0-1.43-.27-1.94-.78-.51-.51-.86-1.29-.86-2.35s.35-1.85.86-2.36c.52-.51,1.22-.79,1.95-.77.73,0,1.43.26,1.94.77.51.51.86,1.3.86,2.36s-.35,1.85-.86,2.36c-.52.51-1.22.79-1.95.77h0ZM49.96,10.09c-3.72,0-6.54,2.74-6.54,6.54s2.82,6.54,6.54,6.54,6.54-2.76,6.54-6.54-2.82-6.54-6.54-6.54h0ZM97.61,23.03h3.71v-7.37c0-.61.19-1.14.53-1.51.38-.41.91-.63,1.47-.61.67,0,1.12.23,1.42.57.3.35.45.85.45,1.46v7.47h3.69v-7.37c0-.59.19-1.12.53-1.51.37-.41.89-.63,1.44-.62.68,0,1.14.23,1.43.57.3.35.44.85.44,1.46v7.47h3.62v-8.13c0-1.66-.55-2.87-1.41-3.66-.86-.79-2-1.14-3.15-1.14-.82,0-1.57.14-2.24.48-.57.29-1.08.71-1.52,1.3-.72-1.17-2.02-1.78-3.57-1.78-1.13,0-2.43.45-3.26,1.32v-1.02h-3.57v12.63ZM96.21,10.41v3.78l-.29-.06c-.34-.07-.64-.09-.92-.09-.79,0-1.49.19-1.99.66-.5.47-.84,1.24-.84,2.49v5.84h-3.7v-12.63h3.61v1.22c.89-1.07,2.27-1.29,3.14-1.29.28,0,.53.03.77.05l.22.02ZM29.46,16.95h3.62l.04.04s.05.07.05.11c.03.69.34,1.33.85,1.79.48.39,1.08.59,1.69.58.69.02,1.35-.26,1.82-.77.44-.54.68-1.22.65-1.92V6.19h3.91v10.69c0,3.42-2.62,6.28-6.36,6.28-1.86,0-3.43-.62-4.53-1.7-1.07-1.05-1.71-2.55-1.74-4.38v-.15ZM73.84,7.91l.2.06v-2.87l-.1-.04c-.21-.08-.43-.14-.65-.17-.27-.05-.59-.08-.92-.08-1.28,0-2.71.43-3.45,1.19-.74.76-1.15,1.84-1.15,3.14v.6h-1.86v3.29h1.86v10h3.74v-10h2.53v-3.29h-2.53v-.56c0-.58.2-.92.46-1.11.28-.19.61-.28.94-.27.48,0,.76.06.91.11h0ZM64.57,20.08l.19-.06v2.88l-.09.05c-.14.07-.35.13-.61.17-.26.04-.56.07-.87.07-1.2,0-2.54-.42-3.24-1.19-.7-.76-1.08-1.85-1.08-3.15v-5.81h-1.75v-3.28h1.75v-3.55h3.51v3.55h2.37v3.28h-2.37v5.75c0,.59.19.92.44,1.12.25.2.58.27.89.27.45,0,.72-.07.85-.11h0ZM64.57,20.08"/>
  <path class="st1" d="M9.96,23.54c.4.39.12,1.05-.45,1.05h-3.56c-.69,0-1.26-.54-1.27-1.23v-3.45c0-.55.68-.83,1.09-.44l4.19,4.07ZM9.96,23.54"/>
  <path class="st1" d="M15.52,23.81c-.5-.5-.79-1.18-.79-1.89s.28-1.39.79-1.89l3.8-3.77c1.05-1.05,2.76-1.05,3.81,0,.5.5.79,1.18.79,1.89s-.28,1.39-.79,1.89l-3.8,3.77c-1.05,1.05-2.76,1.05-3.81,0h0ZM15.52,23.81"/>
  <path class="st1" d="M5.48,14.33c-.5-.5-.79-1.18-.79-1.89s.28-1.39.79-1.89l6.39-6.35c1.05-1.05,2.76-1.05,3.81,0,.5.5.79,1.18.79,1.89s-.28,1.39-.79,1.89l-6.4,6.35c-1.05,1.04-2.75,1.04-3.81,0h0ZM5.48,14.33"/>
  <path class="st1" d="M10.71,18.86c-.5-.5-.79-1.18-.79-1.89s.28-1.39.79-1.89l8.63-8.58c1.05-1.05,2.76-1.05,3.81,0,.5.5.79,1.18.79,1.89s-.28,1.39-.79,1.89l-8.63,8.58c-1.05,1.05-2.76,1.05-3.81,0h0ZM10.71,18.86"/>
</svg>