<?xml version="1.0" encoding="UTF-8"?>
<svg id="Layer_1" xmlns="http://www.w3.org/2000/svg" version="1.1" viewBox="0 0 121 28">
  <!-- Generator: Adobe Illustrator 29.1.0, SVG Export Plug-In . SVG Version: 2.1.0 Build 142)  -->
  <defs>
    <style>
      .st0 {
        fill: #f5f9ff;
      }
    </style>
  </defs>
  <g id="MAGNET_FORENSICS_LOGO">
    <path id="R_MARK" class="st0" d="M104.4,17.3c0-1,.8-1.9,1.9-1.9s1.9.8,1.9,1.9-.8,1.9-1.9,1.9c-1,0-1.9-.8-1.9-1.9ZM107.9,17.3c0-.9-.6-1.6-1.5-1.6s-1.5.7-1.5,1.6.7,1.6,1.5,1.6c.9,0,1.5-.6,1.5-1.6ZM105.7,16.4h.7c.4,0,.7.2.7.6h0c0,.3-.2.4-.4.5l.5.8h-.4l-.5-.7h-.2v.7h-.4v-1.9ZM106.3,17.2c.2,0,.3,0,.3-.3h0c0-.2-.1-.3-.3-.3h-.2v.5h.2Z"/>
    <path id="FORENSICS" class="st0" d="M16.9,27.9h-2.1v-12.4h8.4v1.9h-6.3v3.6h5v1.9h-5v5ZM27.1,15.5h5l2.3,2.3v7.9l-2.3,2.3h-5l-2.3-2.3v-7.9l2.3-2.3ZM28,17.3l-1.1,1.1v6.4l1.1,1.1h3.1l1.1-1.1v-6.4l-1.1-1.1h-3.1ZM36.4,27.9v-12.4h6.7l2.3,2.3v3.2l-2.1,2.1,2.5,4.8h-2.2l-2.4-4.7h-2.7v4.7h-2.1ZM38.5,17.3v4h3.7l1.1-1.1v-1.7l-1.1-1.1h-3.7ZM56.1,15.5v1.9h-6.6v3.2h5.2v1.9h-5.2v3.5h6.6v1.9h-8.6v-12.4h8.6ZM65.6,27.9l-5.5-9.1v9.1c0,0-2,0-2,0v-12.4h2.4l5.5,9.1v-9.1c0,0,2,0,2,0v12.4h-2.4ZM76.5,27.9h-6.5v-1.9h5.6l.9-.9v-1.5l-.4-.4-4.8-1.5-1.2-1.2v-3l2-2h6.3v1.9h-5.4l-.9.9v1.5l.4.4,4.8,1.5,1.2,1.2v3l-2,2ZM82.6,15.5v12.4h-2.1v-12.4h2.1ZM93,26v1.9h-5.9l-2.3-2.3v-7.9l2.3-2.3h5.9v1.9h-5l-1.1,1.1v6.4l1.1,1.1h5ZM101.2,27.9h-6.5v-1.9h5.6l.9-.9v-1.5l-.4-.4-4.8-1.5-1.2-1.2v-3l2-2h6.3v1.9h-5.4l-.9.9v1.5l.4.4,4.8,1.5,1.2,1.2v3l-2,2Z"/>
    <path id="MAGNET_BRIGHT_BLUE" class="st0" d="M28.1.1v12.4h-2.9V4.1l-2,7-1.4-5.4L23.2.1s4.9,0,4.9,0ZM78.3,3.5v9.1h2.9V3.5h-2.9ZM68.2,12.5h5.5s0-2.6,0-2.6h-5.5s0,2.6,0,2.6ZM68.2.1v2.6h5.5s0-2.6,0-2.6h-5.5ZM45.9,4.9v2.6h1.8v5h1l1.9-1.9v-5.7s-4.7,0-4.7,0ZM62.8,11.3V.1h-2.9v6.5c.1,0,2.9,4.7,2.9,4.7ZM37,.1h-2.9l2,7.4h-2.1s-.7,2.4-.7,2.4h3.4s.7,2.6.7,2.6h3L37,.1Z"/>
    <path id="MAGNET_DARK_BLUE" class="st0" d="M22.4,11.1h-2.7l-2-7v8.4h-2.9V.1h4.9l2.7,11ZM74.8.1v2.6h9.8V.1h-9.8ZM67.6,7.6h4.7v-2.6h-4.7V.1h-2.9v12.4h2.9v-5h0ZM47,9.9h-2.4l-.5-.5V3.3l.5-.5h5.8V.1h-7l-2.3,2.3v7.9l2.3,2.3h3.6v-2.6ZM55.4.1h-3.2v12.4h2.9l-.2-7.8,4.7,7.8h3.2L55.4.1ZM34.4,3.5l-.9-3.4h-1.1s-3.4,12.4-3.4,12.4h3l2.4-9Z"/>
  </g>
</svg>