<?xml version="1.0" encoding="UTF-8"?>
<svg id="Layer_1" xmlns="http://www.w3.org/2000/svg" version="1.1" viewBox="0 0 121 28">
  <!-- Generator: Adobe Illustrator 29.1.0, SVG Export Plug-In . SVG Version: 2.1.0 Build 142)  -->
  <defs>
    <style>
      .st0 {
        fill: #003eba;
      }
    </style>
  </defs>
  <path class="st0" d="M25,13.3c0,3-1.7,6.3-6.4,6.3s-6.4-1.9-6.4-6.3,2.3-6.5,6.9-6.2c4.9.3,5.9,4,5.9,6.2ZM16.3,11c-.4.7-.6,1.5-.6,2.3,0,1.8.9,3.5,2.9,3.5s2.8-1.5,2.8-3.4-.3-2.3-1-2.9c-.7-.7-1.6-.7-2.1-.6-1,0-1.6.4-2.1,1.1h0Z"/>
  <path class="st0" d="M56.2,8.4c.4-.4.6-.6,1.2-.9.5-.2,1.3-.4,2.2-.4s1.5.1,2.1.5c1.3.7,1.6,1.7,1.6,3.6v8.1h-3.5v-6.7c0-1.1,0-1.5-.2-1.8-.3-.6-.9-.9-1.6-.9-1.8,0-1.8,1.5-1.8,3v6.4h-3.5V7.3h3.5v1.1Z"/>
  <path class="st0" d="M51,16.2c-.3.7-1.4,3.4-5.9,3.4s-6-2.2-6-6.1,1.4-6.4,6.1-6.4,2.8,0,4.3,1.6c1.5,1.7,1.6,4,1.7,5.3h-8.5c0,1.5.8,3,2.7,3s2.6-1.3,3-2.1l2.7,1.3h0ZM47.5,11.7c0-.5-.2-1.2-.7-1.7-.4-.4-1.1-.7-1.7-.7s-1.4.4-1.8.8c-.5.5-.6,1.1-.7,1.6h4.9Z"/>
  <path class="st0" d="M99.9,9.8h2.3v-2.5h-2.3v-2.5h-3.5v2.5h-.6l-1.6,2.5h2.2v5.7c0,1.1,0,2,.5,2.7.8,1.1,2.1,1.2,3.3,1.2s1.1,0,1.8-.2v-2.7h-1.3c-.9,0-.9-.6-.9-1.3v-5.3Z"/>
  <path class="st0" d="M65,4.8h3.5v2.5h3.6l-1.6,2.5h-2.1v5.3c0,.7,0,1.3.9,1.3h1.3s0,2.7,0,2.7c-.8.1-1.2.2-1.8.2-1.2,0-2.5,0-3.3-1.2-.5-.7-.5-1.6-.5-2.7V4.8Z"/>
  <path class="st0" d="M105.4,9.8h-.4v-2.1h-.8v-.4h2v.4h-.8v2.1ZM108.8,9.8h-.4v-1.5s0-.5,0-.5v.4c-.1,0-.6,1.6-.6,1.6h-.4l-.5-1.6v-.4c-.1,0,0,.5,0,.5v1.5s-.4,0-.4,0v-2.5h.6l.6,2,.6-2h.6v2.5h0Z"/>
  <path class="st0" d="M83.1,16.2l-.7,1c-.6.9-1.8,2.3-5.2,2.3s-5.9-2.2-5.9-6.1,1.4-6.4,6.1-6.4,2.8,0,4.3,1.6c1.6,1.7,1.6,4,1.7,5.3h-8.5c0,1.5.7,3,2.6,3s2.5-1.3,2.9-2.1l2.7,1.4h0ZM79.8,11.7c0-.5-.2-1.2-.7-1.7-.4-.4-1.1-.7-1.7-.7s-1.4.4-1.8.8c-.5.5-.6,1.1-.7,1.6h4.9Z"/>
  <path class="st0" d="M95.1,19.2l-4.4-6.3,3.6-5.6h-4l-1.7,2.7-1.9-2.7h-4l3.9,5.6-4,6.3h4l2.1-3.3,2.3,3.3h4Z"/>
  <path class="st0" d="M29.8,8.4c.3-.5,1.4-1.3,3.1-1.3,2.9,0,5,2.2,5,6.2s-.9,6.3-5.1,6.3-2.7-.8-3-1.3v5h-3.5V7.3h3.5v1.1ZM32.2,9.8c-.6,0-1.3.3-1.8.9-.5.6-.7,1.6-.7,2.6s.4,2.2.8,2.7c.4.5,1,.7,1.6.7,1.7,0,2.5-1.8,2.5-3.5s-.4-3-1.9-3.4c-.2,0-.3,0-.5,0Z"/>
</svg>