<?xml version="1.0" encoding="UTF-8"?>
<svg id="Layer_1" xmlns="http://www.w3.org/2000/svg" version="1.1" viewBox="0 0 121 28">
  <!-- Generator: Adobe Illustrator 29.1.0, SVG Export Plug-In . SVG Version: 2.1.0 Build 142)  -->
  <defs>
    <style>
      .st0 {
        fill: #003eba;
      }
    </style>
  </defs>
  <path class="st0" d="M26.25,12.07h6.98v1.95l-2.62.2c-4.24.31-5.57,1.43-5.57,4.55v.63c0,2.29,1.62,3.66,4.1,3.66,1.96,0,3.08-.46,4.47-1.87h.22v1.49h2.8v-13.66h-10.38v3.04ZM33.23,18.65c-.86.86-2.16,1.43-3.23,1.43-1.15,0-1.64-.43-1.62-1.37.03-1.32.51-1.63,2.74-1.83l2.1-.2v1.98Z"/>
  <path class="st0" d="M91.81,14.53l-2.08-.2c-1.15-.11-1.44-.4-1.44-1.32,0-1.03.4-1.29,2.02-1.29,1.44,0,1.85.23,2.05,1.2h3.23c-.09-3.26-1.1-4.09-5.11-4.09-4.38,0-5.47.83-5.47,4.18,0,3.06.81,3.89,4.07,4.21l1.7.17c1.53.14,1.9.43,1.9,1.35,0,1.12-.46,1.4-2.34,1.4-1.64,0-2.08-.26-2.16-1.32h-3.27c.09,3.38,1.12,4.24,5.28,4.24,4.62,0,5.77-.92,5.77-4.64,0-2.77-.84-3.57-4.15-3.89Z"/>
  <path class="st0" d="M74.5,14.79c0-4.42-1.53-5.96-5.91-5.96s-6.03,2-6.03,6.99c0,5.44,1.5,7.25,6.35,7.25,3.49,0,4.96-1.06,5.45-4.04h-3.32c-.37.92-.78,1.12-2.19,1.12-2.13,0-2.68-.6-2.8-3.15h8.21c.14-.73.22-1.46.24-2.2ZM66.08,14.3c.03-1.92.81-2.63,2.65-2.63s2.48.72,2.54,2.63h-5.19Z"/>
  <path class="st0" d="M48,9.03h-5.39v-4.1h-3.43v17.75h3.43v-10.59h4.9v10.59h3.43v-10.88h-2.94v-2.78Z"/>
  <path class="st0" d="M76.43,9.63v13.06h3.43v-10.74h4.12v-2.92h-4.12v-.37c.03-.8.23-1.03.89-1.03h3.75v-2.69h-4.04c-2.74,0-4.04.83-4.04,4.7Z"/>
  <path class="st0" d="M53.48,22.69h3.43v-10.45h5.11v-3.21h-8.54v13.66Z"/>
</svg>