<?xml version="1.0" encoding="UTF-8"?>
<svg id="Layer_1" xmlns="http://www.w3.org/2000/svg" version="1.1" xmlns:xlink="http://www.w3.org/1999/xlink" viewBox="0 0 121 28">
  <!-- Generator: Adobe Illustrator 29.1.0, SVG Export Plug-In . SVG Version: 2.1.0 Build 142)  -->
  <defs>
    <style>
      .st0 {
        mask: url(#mask-1);
      }

      .st1 {
        fill: #fff;
      }

      .st2 {
        mask: url(#mask);
      }

      .st3 {
        fill: #f5f9ff;
      }
    </style>
    <mask id="mask" x="5.6" y="2.9" width="109.8" height="22.1" maskUnits="userSpaceOnUse">
      <g id="mask0_5_4215">
        <path class="st1" d="M115.4,2.9H5.6v22.1h109.8V2.9Z"/>
      </g>
    </mask>
    <mask id="mask-1" x="3.7" y="2.9" width="112.6" height="22.3" maskUnits="userSpaceOnUse">
      <g id="mask1_5_4215">
        <path class="st1" d="M116.3,2.9H3.7v22.3h112.6V2.9Z"/>
      </g>
    </mask>
  </defs>
  <path class="st3" d="M40.3,7.5h-3.9l-4.5,5.7h-.2l-4.4-5.7h-4.1l6.7,8.7-6.7,8.6h3.9l13.3-17.2Z"/>
  <path class="st3" d="M33.6,21l2.8,3.7h3.9l-4.7-6.2-2,2.6Z"/>
  <g class="st2">
    <path class="st3" d="M47.5,2.9v4.5h4.7v2.7h-4.7v10.1c0,3.1,3.9,1.9,4.7,1.5v2.5c-1,.5-7.9,2.7-7.9-3.8v-10.4h-2.4l5.5-7.2Z"/>
  </g>
  <g class="st0">
    <g>
      <path class="st3" d="M83,7.2v2.4c-1.5,0-3.5,0-5.8,3.5v11.5h-3.1V7.5h3.1v2.3c1.5-2.3,3.7-2.5,5.8-2.5Z"/>
      <path class="st3" d="M94.5,7.2v2.4c-1.5,0-3.5,0-5.8,3.5v11.5h-3.1V7.5h3.1v2.3c1.5-2.3,3.7-2.5,5.8-2.5Z"/>
      <path class="st3" d="M95.6,16c0-2.7.8-4.9,2.4-6.6,1.6-1.7,3.7-2.5,6.4-2.5s4.8.8,6.4,2.5c1.6,1.7,2.4,3.9,2.4,6.6s-.8,4.9-2.4,6.6-3.7,2.5-6.4,2.5-4.8-.8-6.4-2.5c-1.6-1.7-2.4-3.9-2.4-6.6ZM100.5,20.6c1.1,1,2.5,1.6,4,1.6s2.8-.5,4-1.6c1.1-1,1.7-2.6,1.7-4.7s-.6-3.7-1.7-4.7c-1.1-1-2.5-1.5-4-1.5s-2.8.5-4,1.5c-1.1,1-1.7,2.6-1.7,4.7s.6,3.7,1.7,4.7Z"/>
      <path class="st3" d="M22,16v1.1h-13.3c.2,1.6.8,2.9,1.8,3.7,1,.9,2.5,1.3,4.6,1.3s3.9-.6,5.7-1.7h.2v3c-1.9,1.1-4.2,1.6-6.8,1.6s-4.7-.8-6.3-2.4c-1.6-1.6-2.4-3.7-2.4-6.5s.7-4.9,2.1-6.7c1.4-1.8,3.4-2.6,6.1-2.6s4.7.9,6.1,2.6c1.4,1.8,2.1,3.9,2.1,6.5M8.8,14.5h10.1c0-1.6-.6-2.9-1.7-3.7-1-.8-2.2-1.3-3.4-1.3s-2.4.4-3.4,1.3c-1,.8-1.6,2.1-1.6,3.7"/>
      <path class="st3" d="M71.1,16v1.1h-13.3c.2,1.6.8,2.9,1.8,3.7,1,.9,2.5,1.3,4.6,1.3s3.9-.6,5.7-1.7h.2v3c-1.9,1.1-4.2,1.6-6.8,1.6s-4.7-.8-6.3-2.4c-1.6-1.6-2.4-3.7-2.4-6.5s.7-4.9,2.1-6.7c1.4-1.8,3.4-2.6,6.1-2.6s4.7.9,6.1,2.6c1.4,1.8,2.1,3.9,2.1,6.5M57.9,14.5h10.1c0-1.6-.6-2.9-1.7-3.7-1-.8-2.2-1.3-3.4-1.3s-2.4.4-3.4,1.3c-1,.8-1.6,2.1-1.6,3.7Z"/>
      <path class="st3" d="M112.6,8.9c0-.2,0-.5.2-.7.1-.2.3-.4.5-.5.2-.1.4-.2.7-.2s.5,0,.7.2c.2.1.4.3.5.5.1.2.2.4.2.7s0,.5-.2.7c-.1.2-.3.4-.5.5-.2.1-.5.2-.7.2s-.5,0-.7-.2c-.2-.1-.4-.3-.5-.5-.1-.2-.2-.4-.2-.7M112.8,8.9c0,.2,0,.4.2.6.1.2.3.3.4.4.2.1.4.2.6.2s.4,0,.6-.2c.2-.1.3-.3.4-.4.1-.2.2-.4.2-.6s0-.4-.2-.6c-.1-.2-.2-.3-.4-.4-.2-.1-.4-.2-.6-.2s-.4,0-.6.2c-.2.1-.3.3-.4.4-.1.2-.2.4-.2.6M114.6,8.5c0,0,0,.2,0,.3,0,0-.1.1-.2.2l.4.7h-.3l-.4-.7h-.2v.7h-.3v-1.6h.5c.2,0,.4,0,.4.1,0,0,.1.2.1.4M113.8,8.8h.2c0,0,.2,0,.2,0,0,0,0-.1,0-.2s0-.2,0-.2c0,0-.1,0-.2,0h-.2v.5h0Z"/>
    </g>
  </g>
</svg>