<?xml version="1.0" encoding="UTF-8"?>
<svg id="Layer_1" xmlns="http://www.w3.org/2000/svg" version="1.1" viewBox="0 0 121 28">
  <!-- Generator: Adobe Illustrator 29.1.0, SVG Export Plug-In . SVG Version: 2.1.0 Build 142)  -->
  <defs>
    <style>
      .st0 {
        fill: #003eba;
      }
    </style>
  </defs>
  <path class="st0" d="M99.7,13.69c-.87-2.35-3.05-4.18-5.55-4.49v-3.23c1.1-.57,1.65-1.73,1.35-2.95-.23-.91-1.08-1.72-2.02-1.84-2.98-.36-4.05,3.4-1.53,4.78v3.23c-1.23.13-2.35.72-3.34,1.43l-8.75-6.8c-.12-.14,0-.38.02-.55.06-.95-.34-1.85-1.08-2.43-.39-.31-.82-.44-1.3-.57h-.79l-.71.22c-3.28,1.47-1.37,6.42,2.08,5.18.13-.05.31-.2.43-.15l8.64,6.73c-.16.34-.38.66-.53,1.01-.85,1.91-.81,4.16.11,6.03.16.32.39.62.53.93l-2.61,2.62c-2-.58-3.72,1.51-2.67,3.35,1.15,2.03,4.32,1.15,4.3-1.15,0-.16-.14-.6-.1-.7l2.58-2.57c.99.71,2.12,1.23,3.33,1.39,5.31.72,9.47-4.42,7.61-9.47ZM96.02,18.05c-1.64,2.68-5.71,2.11-6.54-.91-.62-2.22.93-4.43,3.23-4.61,2.91-.22,4.84,3.02,3.32,5.51Z"/>
  <polygon class="st0" points="12.05 4.8 15.42 4.8 15.42 12.56 22.54 12.56 22.54 4.8 25.9 4.8 25.9 23.31 22.54 23.31 22.54 15.82 15.42 15.82 15.42 23.31 12.05 23.31 12.05 4.8"/>
  <path class="st0" d="M108.95,20.36l-.79,2.82c-.05.06-.58.12-.7.13-2.82.18-5.16-1.07-5.32-4.1V7.67s3.26-1.46,3.26-1.46v3.71h2.95v2.8h-2.95v5.92c0,.18.15.62.23.79.54,1.03,2.12.96,3.12.9.07,0,.14-.04.21-.04v.08Z"/>
  <path class="st0" d="M48.52,9.49c-1.3.07-2.41.59-3.35,1.48v-6.06h-3.22v11.64c.21,5.43,5.66,8.61,10.41,5.64,5.93-3.71,3.09-13.07-3.84-12.7ZM52.07,18.26c-1.4,2.46-4.99,2.41-6.35-.06-1.32-2.41.42-5.37,3.15-5.4,2.81-.04,4.58,3.02,3.19,5.47Z"/>
  <path class="st0" d="M79.46,9.89c-4.6-1.89-8.94,1.16-9.31,5.94v11.91h3.18v-6.09c2.55,2.54,6.76,1.67,8.89-.97,2.95-3.64,1.55-9.02-2.76-10.79ZM80.14,18.21c-1.57,2.4-5.26,2.07-6.38-.57-.96-2.25.53-4.85,2.98-5.07,3.06-.28,5.1,3.06,3.41,5.64Z"/>
  <path class="st0" d="M62.5,4.81c1.97-.1,4.14.81,5.33,2.39l-2.06,2.44c-.1.03-.39-.33-.49-.41-1.06-.9-2.69-1.63-4-.79-.79.5-1.11,1.95-.5,2.68s2.38,1.11,3.29,1.44c2.1.76,3.53,1.8,3.94,4.13.62,3.57-1.49,6.2-5.04,6.58-2.51.27-4.81-.76-6.33-2.73l2.33-2.41c.8.97,1.58,1.79,2.91,1.89,1.11.08,2.35-.38,2.65-1.55.62-2.39-2.99-2.93-4.54-3.64-1.69-.77-2.78-1.89-3.01-3.8-.43-3.63,1.98-6.03,5.51-6.21Z"/>
  <path class="st0" d="M31.13,9.42v7.86c0,2.37,2.79,3.76,4.64,2.17.42-.36.97-1.24.97-1.8v-8.23h3.18v8.42c-.83,7.28-11.22,7.22-11.96-.08v-8.35h3.18Z"/>
</svg>