<?xml version="1.0" encoding="UTF-8"?>
<svg id="Layer_1" xmlns="http://www.w3.org/2000/svg" version="1.1" viewBox="0 0 121 28">
  <!-- Generator: Adobe Illustrator 29.1.0, SVG Export Plug-In . SVG Version: 2.1.0 Build 142)  -->
  <defs>
    <style>
      .st0 {
        fill: #003eba;
      }
    </style>
  </defs>
  <path class="st0" d="M83.44,12.25c0-1.97-1.21-3.4-3.54-3.4h-7.51v10.23h2.47v-3.49h2.92l2.86,3.49h2.78v-.23l-2.78-3.32c1.74-.36,2.79-1.63,2.79-3.27ZM79.63,13.51h-4.76v-2.55h4.76c.88,0,1.45.47,1.45,1.28,0,.82-.55,1.27-1.45,1.27Z"/>
  <path class="st0" d="M120.74,8.84h-2.31v3.88h-6.22v-3.88h-2.5v10.23h2.5v-4.03h6.22v4.03h2.31v-10.23Z"/>
  <path class="st0" d="M65.79,8.84l-2.75,8.6h-.15l-2.76-8.6h-4.4v10.23h2.35v-8.4h.15l2.75,8.4h3.79l2.76-8.4h.15v8.4h2.42v-10.23h-4.31Z"/>
  <path class="st0" d="M38.92,13.03c-.87-.09-2.5-.24-3.37-.33-.86-.09-1.35-.34-1.35-.91s.53-1,2.65-1c1.88,0,3.61.4,5.12,1.13v-2.29c-1.51-.72-3.17-1.07-5.24-1.07-2.91,0-4.92,1.22-4.92,3.27,0,1.74,1.18,2.69,3.55,2.95.86.09,2.32.22,3.34.31,1.11.09,1.44.43,1.44.94,0,.69-.78,1.12-2.75,1.12s-4.03-.66-5.48-1.57v2.35c1.16.78,3.17,1.43,5.4,1.43,3.18,0,5.22-1.23,5.22-3.42,0-1.65-1.09-2.65-3.6-2.91Z"/>
  <path class="st0" d="M44.14,8.84v10.23h9.54v-2.09h-7.19v-2.07h7.07v-2.07h-7.07v-1.9h7.19v-2.09h-9.54Z"/>
  <path class="st0" d="M104.61,13.03c-.87-.09-2.5-.24-3.37-.33-.86-.09-1.35-.34-1.35-.91s.53-1,2.65-1c1.88,0,3.61.4,5.12,1.13v-2.29c-1.51-.72-3.17-1.07-5.24-1.07-2.91,0-4.92,1.22-4.92,3.27,0,1.74,1.18,2.69,3.55,2.95.86.09,2.32.22,3.34.31,1.11.09,1.44.43,1.44.94,0,.69-.78,1.12-2.75,1.12s-4.03-.66-5.48-1.57v2.35c1.16.78,3.17,1.43,5.4,1.43,3.18,0,5.22-1.23,5.22-3.42,0-1.65-1.09-2.65-3.6-2.91Z"/>
  <path class="st0" d="M93.33,8.84v5.24c0,1.98-1.2,3.07-3.02,3.07s-3.02-1.07-3.02-3.1v-5.2h-2.45v4.97c0,3.71,2.32,5.55,5.51,5.55s5.43-1.76,5.43-5.43v-5.09h-2.45Z"/>
  <path class="st0" d="M23.34,13.89c0,.5-.25.58-.88.58-.67,0-.79-.12-.86-.61-.13-1.29-1-2.38-2.45-2.49-.46-.04-.58-.21-.58-.79,0-.54.08-.79.5-.79,2.53,0,4.28,2.03,4.28,4.1ZM27.02,13.89c0-3.86-2.61-7.92-8.63-7.92H6.41c-.24,0-.39.13-.39.35,0,.12.09.23.17.29.44.34,1.08.72,1.94,1.15.83.42,1.47.69,2.13.95.27.11.38.23.38.39,0,.21-.15.34-.45.34H.68c-.28,0-.42.18-.42.36,0,.16.05.28.19.42.77.8,2,1.78,3.79,2.9,1.57.98,3.51,2.04,5.05,2.78.26.12.35.27.34.42,0,.17-.14.32-.44.32h-4.36c-.25,0-.39.13-.39.33,0,.11.09.25.21.36.99.9,2.58,1.88,4.69,2.78,2.82,1.2,5.68,1.92,8.9,1.92,6.1,0,8.78-4.56,8.78-8.13ZM19.06,19.36c-2.99,0-5.49-2.44-5.49-5.47s2.49-5.39,5.49-5.39,5.47,2.4,5.47,5.39-2.4,5.47-5.47,5.47Z"/>
</svg>