<?xml version="1.0" encoding="UTF-8"?>
<svg id="Layer_1" xmlns="http://www.w3.org/2000/svg" version="1.1" viewBox="0 0 121 28">
  <!-- Generator: Adobe Illustrator 29.1.0, SVG Export Plug-In . SVG Version: 2.1.0 Build 142)  -->
  <defs>
    <style>
      .st0 {
        fill: #003eba;
      }
    </style>
  </defs>
  <path class="st0" d="M48.8,4.6v6.7l-7.9-7.3v19.7h10.4v-6.5l7.7,7.1V4.6h-10.2ZM48.8,21h-5.5v-11.2c.4,0,.4.1.6.3,1.6,1.2,3.3,3.4,4.9,4.7v6.2ZM56.3,18.4c-.6-.6-5.1-4.4-5.1-4.8v-6.6h5.1v11.4Z"/>
  <path class="st0" d="M110.4,13.1l-9.6-9.1v19.7h19V4l-9.3,9.1ZM103.2,9.6l5.3,5.2-5.3,5.3v-10.5ZM117.2,21.2h-11.4l11.4-11.4v11.4Z"/>
  <path class="st0" d="M16,4.6v4.7H3.8v-4.7H1.3v19.1h2.4v-4.9h12.2v4.9h2.4V4.6h-2.4ZM16,16.3H3.8v-4.4s.3-.3.3-.3h11.6s.3.3.3.3v4.4Z"/>
  <path class="st0" d="M76.5,17.3c-.7,2.1-3,3.5-5.1,3.9V7c2.1.2,4.2,1.7,5.1,3.6,1.8-.8,2.9-.6,1.4-2.5-5.9-7.5-17.8-3.2-17.5,6.3.2,6.1,6.1,10.5,12,9.1,2.5-.6,5.5-2.7,6.3-5.2l-2.2-1ZM69,21.2c-8.1-1.4-8.1-12.9,0-14.2v14.2Z"/>
  <path class="st0" d="M87.7,4.4c-10.1,1.4-10.9,17-.4,19.2,14.9,3.1,16.2-21.3.4-19.2ZM90.6,21.2c-10.2,1.2-11.3-13.1-2.4-14.3,9.9-1.4,11.3,13.2,2.4,14.3Z"/>
  <path class="st0" d="M29.5,3.8l-9.9,19.9h20L29.5,3.8ZM29.4,9.2l6.1,11.8h-11.8l5.7-11.8Z"/>
</svg>