<?xml version="1.0" encoding="UTF-8"?>
<svg id="Layer_1" xmlns="http://www.w3.org/2000/svg" version="1.1" viewBox="0 0 121 28">
  <!-- Generator: Adobe Illustrator 29.1.0, SVG Export Plug-In . SVG Version: 2.1.0 Build 142)  -->
  <defs>
    <style>
      .st0 {
        fill: #f5f9ff;
      }
    </style>
  </defs>
  <path class="st0" d="M32.22,7.65c-1.09,2.19-2.21,4.38-3.34,6.56-.61,1.17-1.23,2.34-1.85,3.52-.32.9-.79,1.78-1.25,2.62-.56,1.05-1.12,2.13-1.67,3.22h-9l-.11-.03c.51-1.23,1.17-2.47,1.9-3.6.46-1.01.96-2,1.49-2.98.04-.17.13-.34.24-.48.12-.25.22-.5.28-.74l-.1-.04c.03.07.02.13-.06.12-.43.54-.89,1.1-1.43,1.55-.63.67-1.3,1.29-2.03,1.85-.17.14-.35.26-.54.36-.31.28-.64.5-1.01.66-.74.44-1.52.84-2.33,1.19-1.28.63-2.69,1.11-4.11,1.37-.46.13-3.68.9-3.95.67-.02-.02-.04-.05-.05-.07v-7.57l.03-.1c.39-.06.78-.11,1.16-.14.67-.08,1.32-.22,1.97-.42.47-.17.93-.37,1.37-.6.79-.43,1.52-.86,2.21-1.45.09-.08.28-.26.33-.35,0,0-.04-.12-.04-.12-2.33,0-4.66,0-6.98-.02l-.04-.08V4.47c2.73-.02,5.43,0,8.11.08.01,2.17.04,4.35.08,6.54l-.08.04c.1.02.21.02.32,0,.11-.25.23-.5.34-.74.03-.17.13-.35.24-.48.71-1.69,1.56-3.35,2.43-4.96.05-.08.11-.15.19-.22.08-.19.3-.22.48-.22,1.91-.01,3.82,0,5.72.04.05,2.13.05,4.39,0,6.53.24.17.43-.13.54-.36l.29-.62c.05-.27.18-.51.36-.72.49-1.05,1.02-2.09,1.61-3.1l-.03-.08c.26-.54.57-1.1.87-1.59.05-.12.18-.17.38-.17h8.54c.21.01.13.21.06.35-.51.94-1.02,1.9-1.52,2.86Z"/>
  <path class="st0" d="M102.04,10.86c.92-.05,1.85-.06,2.78-.02.11.15.18.34.2.56.09,0,.1.1,0,.12l.42,1.49c.06.36.16.7.3,1.01.03.02.03.04,0,.06.23.78.43,1.6.6,2.38.19.2.32.7.24,1.01.12,0,.14-.05.14-.2l.1-.04c0-.11.04-.27.12-.36.22-.66.44-1.35.6-2.03l-.04-.06c.27-.74.49-1.51.7-2.26,0-.02,0-.04,0-.06.11-.38.23-.74.36-1.07.07-.17.14-.34.22-.52.12-.1,2.35-.1,2.46,0,.12.23.2.48.24.76.07.04.08.09,0,.12l.12.24c.57,1.51,1.03,3.15,1.43,4.65.05.01.05.03,0,.06l.13.46c.15.34.27.12.28-.21l.24-.91c-.05-.02-.05-.04,0-.06.12-.27.22-.55.3-.83.3-1.41.66-2.94,1.13-4.23-.01-.04-.02-.06,0-.07.11-.07,2.24-.03,2.6-.02.03,0-.14.56-.21.63-.06.49-.18.99-.42,1.43-.32,1.37-.76,2.72-1.19,4.05-.23.9-.48,1.83-.83,2.68-.09.33-.19.64-.3.95.04.04.04.08,0,.12-.1.24-.2.45-.3.66-.78.05-1.55.05-2.33,0-.11-.04-.14-.13-.18-.24-.1-.12-.16-.28-.18-.48-.14-.15-.22-.45-.24-.66-.18-.41-.33-.87-.42-1.31-.09-.13-.12-.37-.12-.54-.31-.87-.6-1.75-.89-2.62-.23-1.2-.49-1.02-.79.54l-.05.05c-.21.73-.43,1.47-.66,2.2-.23.74-.47,1.5-.72,2.26.05.11.03.28-.06.36-.01.2-.08.36-.19.46-.23.13-2.52.11-2.57-.03-.29-.78-.52-1.65-.7-2.45-.03-.1-.03-.2,0-.3-.05-.07-.09-.15-.12-.24-.09-.3-.19-.6-.3-.89-.08-.23-.15-.47-.18-.72-.09-.1-.17-.36-.12-.48-.02-.11-.06-.21-.12-.3-.21-.5-.37-1.01-.48-1.55-.28-.71-.53-1.45-.66-2.2,0-.22-.06-.42-.18-.6-.13-.13-.34-.66-.18-.77Z"/>
  <path class="st0" d="M89.7,6.34c-.02.06.06.13.06.15v14.84s-.08.09-.09.09h-2.44s-.09-.08-.15-.06V6.48s.08-.09.06-.15h2.56Z"/>
  <path class="st0" d="M85.77,6.4c.06,0,.12,0,.18,0v2.21s-.3.06-.3.06c-.04,0-.08,0-.12,0-.1.01-.18.05-.24.12-.39.1-.54.19-.83.48-.38.37-.37.51-.48.98-.02.09-.26.63-.03.63h2v2.09h-2s-.09.08-.09.09v8.31h-2.5v-8.22s0-.09-.03-.12c-.12-.14-1.43-.01-1.7-.06v-2.09h1.64c.16-.12.06-.33.09-.5.16-.84.33-1.45.83-2.18.42-.61,1.12-1.1,1.79-1.37.14-.06.37-.2.54-.24.11-.03.32-.03.48-.06.03,0,.08-.05.12-.06.2-.03.42-.02.66-.06Z"/>
  <path class="st0" d="M79.26,14.91c-.25-.12-.14-.4-.19-.61-.05-.19-.21-.65-.28-.82-.23-.48-.58-.9-.86-1.35l-1.22-.97c-.21-.08-.45-.22-.66-.3-.32.03-.56-.12-.87-.17-.33-.05-.9-.15-1.21-.12-.49.03-1.12.2-1.55.42-.13.03-.24.09-.35.17-.04.01-.09.04-.12.05-.13.21-.43.32-.6.45-.11.08-.25.33-.38.33-.05.01-.15-.05-.15-.09v-5.51h-2.44v14.96h2.44v-1.31c.23-.02.34.23.51.35.35.28.63.47,1.04.66.17.13.36.23.54.31,1.1.25,2.25.24,3.34-.12.19-.07.43-.21.6-.3-.03-.12.07-.13.14-.19.39-.27.73-.47,1.05-.86.18-.23.27-.58.54-.68.07-.12.12-.24.18-.36.09-.28.21-.55.3-.83.31-1,.3-2.07.24-3.11ZM76.41,17.36c-.16.09-.15.3-.24.45-.68,1.19-1.83,1.44-3.14,1.28-.75-.1-1.77-1.14-1.99-1.85-.78-2.47,1.08-4.91,3.75-4.11.79.23,1.29.82,1.57,1.55.09.22.1.46.22.65,0,.79.04,1.27-.17,2.03Z"/>
  <path class="st0" d="M58.98,16.71c2.72.01,5.42,0,8.13-.07.05-.2.02-1.22,0-1.49-.11-.24-.16-.5-.18-.78-.19-.65-.65-1.57-1.07-2.08-.16-.2-.47-.42-.66-.6l-.96-.59c-.24-.03-.53-.23-.77-.31-.02,0-.04.01-.07,0-1.06-.23-2.34-.3-3.4,0-.59.18-1.48.62-1.9,1.04-.08.08-.11.15-.24.15-.14.26-.38.44-.58.7-.19.24-.4.59-.55.85-.03.21-.12.47-.19.67-.03.09-.07.02-.12.28-.02.11-.07.21-.12.3,0,.08.01.16,0,.24-.03.47-.12.51-.18.81-.02.14-.01.46,0,.62.03.51.15,1.01.3,1.49.25.68.56,1.28,1.02,1.85.15.16.24.27.42.42.46.48,1.06.78,1.67,1.02.3.09.74.24,1.06.28.23.02.59-.08.72.13.88,0,2.18-.19,2.99-.54.31-.13.86-.5,1.13-.71.72-.58,1.37-1.53,1.5-2.45h-2.62c-.21.33-.25.44-.54.72-.31.3-.45.39-.83.59-.4.2-1.13.36-1.59.31-.11-.02-.09-.12-.13-.13-.51-.11-.46-.01-.97-.3-.68-.38-1.16-.94-1.31-1.73,0-.02.01-.04,0-.05-.08-.19-.21-.63.04-.66ZM59.17,14.44c.14-.49.48-.84.9-1.14.11-.03.22-.09.3-.18.46-.24.54-.22,1.04-.31.1-.01.16-.11.25-.11.08-.01.48.12.73.12.69.17,1.43.67,1.67,1.37.03.08.07.15.12.24.02.08.14.45.12.47h-5.25c-.03-.14.01-.3.12-.47Z"/>
  <path class="st0" d="M37.83,7.29c.93-.08,1.9-.04,2.83.01.12.42.25.83.39,1.24.23.88.49,1.77.72,2.62.12.44.19.96.3,1.4l.3.87c.03.14.1.23.12.3.05.2.08.42.14.67.2.79.43,1.58.64,2.37.02.06.13.2.21.18.13-.03.07-.28.09-.36.18-.58.39-1.18.54-1.79.02-.08.04-.16.06-.24l.24-.57c.09-.39.2-.76.3-1.1.17-.6.35-1.18.48-1.79.02-.1.04-.2.06-.3.23-.19.13-.47.18-.66.07-.26.18-.49.24-.77l.6-2.09h.06c.32,0,2.35-.08,2.44,0,.01.01.02.25.05.33.37.92.7,2.1.97,3.03.03.11.06.17.18.21.23.78.5,1.54.72,2.32l.3.95c.09.33.19.63.3.95s.2.65.36.95c.03.15.05.42.18.48,0,.04,0,.08,0,.12.1.14.2.07.3-.24.35-1.15.6-2.26.89-3.4.35-1.33.69-2.64,1.01-3.99.08-.34.18-.75.3-1.07,0,0,.07-.02.1-.1.04-.11.07-.55.16-.55h2.53l-.72,2.68s0,.04,0,.06c-.08.21-.14.43-.18.66-.1.44-.25.88-.36,1.31-.09.36-.22.7-.3,1.07-.19.52-.35,1.07-.48,1.61l-.27.65c-.09.23-.09.57-.14.78-.08.3-.17.6-.24.89-.09.36-.22.7-.3,1.07-.15.29-.2.64-.3.95-.23.73-.49,1.38-.6,2.15,0,.04-.05.17-.1.18h-2.52s-2.74-8.11-2.74-8.11c-.12-.38-.28-.74-.36-1.13-.23-.17-.39.81-.42.89-.26.15-.24.65-.31.91-.05.15-.11.27-.16.46-.08.28-.16.6-.24.89,0,.02,0,.04,0,.06-.12.23-.22.47-.3.72-.02.26-.07.52-.18.77-.31.69-.44,1.55-.66,2.26-.13.43-.42.94-.42,1.43-.19.19-.28.58-.3.83-.77-.08-1.77.11-2.5,0-.11-.04-.14-.13-.18-.24-.16-.47-.29-.95-.42-1.43-.01-.17-.05-.33-.12-.48-.04-.15-.1-.29-.18-.42,0-.02,0-.04,0-.06-.15-.7-.34-1.3-.54-1.97-.06-.2-.09-.27-.15-.42s.02-.35-.15-.42c-.06-.22-.11-.57-.18-.77-.31-1.09-.64-2.18-.95-3.28-.02-.06.03-.18-.01-.25l-.28-.58c-.09-.4-.23-.84-.3-1.19-.02-.11-.06-.21-.12-.3,0-.04,0-.08,0-.12-.09-.46-.31-1.21-.47-1.71-.03-.1-.23-.17-.13-.44Z"/>
  <path class="st0" d="M101.86,14.74c-.08-.31-.15-.61-.3-.9-.21-.21-.27-.54-.44-.81-.14-.24-.61-.78-.81-.97-.49-.47-1.38-1.01-2.03-1.19-.48-.14-1.12-.09-1.51-.19-.04-.01-.01-.11-.12-.12-.15-.02-.42,0-.57.01-.04.31-.7.13-.98.17-.37.05-1.19.39-1.52.54-.02.01-.04-.01-.07,0-.08.1-.17.18-.3.24-.53.28-1,.75-1.31,1.25-.32.39-.56.83-.71,1.31-.16.5-.3,1-.36,1.49.01.5-.02,1.08.07,1.57.04.27.21.66.3.93.09.24.19.48.3.71.05.14.1.23.17.36.09.13.31.42.42.54.14.16.5.51.66.66.21.17.72.55.96.66.34.16.87.27,1.21.36.63.16,2.09.2,2.78.12.88-.11,2.17-.89,2.8-1.5.37-.35.74-.9.95-1.37.07-.15.19-.51.24-.71.04-.09.07-.19.05-.31.05-.05.09-.13.12-.23.16-.84.16-1.77,0-2.62ZM99.06,17.36c-.08.2-.34.66-.47.83-.09.03-.15.09-.19.18-.05.07-.16.16-.24.24-.28.24-.56.35-.89.48-.22.04-.49.09-.72.12-.15.04-.27-.1-.39-.12-.43-.07-.86-.09-1.27-.34-.16-.1-.43-.4-.55-.56-.09-.12-.11-.26-.3-.3-.37-.73-.5-1.18-.47-2.03,0-.1.03-.47.05-.59l.61-1.21c.74-.9,1.87-1.18,2.96-.93.82.19,1.41.74,1.75,1.5.28.62.33,2.1.1,2.73Z"/>
</svg>