<?xml version="1.0" encoding="UTF-8"?>
<svg id="Layer_1" xmlns="http://www.w3.org/2000/svg" version="1.1" viewBox="0 0 121 28">
  <!-- Generator: Adobe Illustrator 29.1.0, SVG Export Plug-In . SVG Version: 2.1.0 Build 142)  -->
  <defs>
    <style>
      .st0 {
        fill: #003eba;
      }
    </style>
  </defs>
  <path class="st0" d="M73.25,4.6v18.53h-2.67v-1.74c-1.33,1.53-3.13,2.23-5.16,1.9-4.9-.78-6.83-6.98-3.92-10.76,1.95-2.53,5.81-3.26,8.36-1.18.24.19.43.52.71.62v-7.37h2.67ZM66.23,12.86c-4.89.55-4.31,8.5.91,8.04,5.12-.45,4.55-8.65-.91-8.04Z"/>
  <path class="st0" d="M89.18,17.68h-10.35c.72,3.7,5.2,3.85,7.65,1.74l1.77,1.88c-2.07,2.14-5.44,2.57-8.19,1.64-7.11-2.42-5.34-13.59,3.15-13.06,4.16.26,6.25,3.94,5.98,7.81ZM86.02,15.51c-.26-4.21-6.72-4.03-7.13,0h7.13Z"/>
  <path class="st0" d="M43.93,17.8h-9.67c.34,1.96,1.9,3.13,3.87,3.04,1.27-.06,2.4-.53,3.34-1.36l1.64,1.88c-3.01,3.18-9.15,2.6-11.17-1.41-2.39-4.76,1.13-10.38,6.55-9.77,3.92.44,5.66,3.99,5.43,7.62ZM34.26,15.69h6.73c.12-.08.04-.31.01-.45-.67-3.75-6.42-3.25-6.74.45Z"/>
  <g>
    <polygon class="st0" points="6.21 23.32 17.09 10.07 17.09 23.25 17.02 23.32 6.21 23.32"/>
    <polygon class="st0" points="29.58 5.04 18.75 18.25 18.75 5.04 29.58 5.04"/>
    <path class="st0" d="M17,5.04c.05,2.13-1.27,4.22-3.21,5.08-3.67,1.64-7.62-1.18-7.58-5.08h10.79Z"/>
    <path class="st0" d="M18.86,23.32c-.11-.03-.03-.53-.02-.65.85-6.31,9.8-6.38,10.72-.04.01.09.1.68-.01.68h-10.7Z"/>
  </g>
  <polygon class="st0" points="106.05 5.34 106.05 17.12 111.53 11.05 114.6 11.05 109.96 16.29 114.79 23.38 111.9 23.38 108.12 17.92 106.05 20.19 106.05 23.38 103.5 23.38 103.5 5.34 106.05 5.34"/>
  <path class="st0" d="M58.31,23.38h-2.6v-7.96c0-.27-.2-.97-.31-1.24-.8-2.05-3.75-2.23-5.05-.58-.69.87-.65,1.48-.65,2.5,0,2.43,0,4.86,0,7.28h-2.67v-8.03c.06-4.39,4.77-6.88,8.56-4.77,1.32.74,2.73,2.66,2.73,4.21v8.58Z"/>
  <path class="st0" d="M100.34,12.59l-2.19,1.17c-.88-1.2-2.45-1.76-3.88-1.26-.93.32-1.62,1.48-.6,2.15,1.92,1.26,6.27.68,6.77,3.89.8,5.11-6.73,6.24-9.74,2.85-.12-.14-.71-.86-.62-.99l2.24-1.23c.83,1.32,2.12,2.01,3.7,1.83.57-.07,1.29-.38,1.59-.89.73-1.28-.5-1.76-1.49-2.08-2.08-.68-5.34-.79-5.57-3.67-.34-4.26,5.33-5.29,8.27-3.37.58.38,1.24.98,1.53,1.6Z"/>
</svg>