<?xml version="1.0" encoding="UTF-8"?>
<svg id="Layer_1" xmlns="http://www.w3.org/2000/svg" version="1.1" viewBox="0 0 121 28">
  <!-- Generator: Adobe Illustrator 29.1.0, SVG Export Plug-In . SVG Version: 2.1.0 Build 142)  -->
  <defs>
    <style>
      .st0 {
        fill: none;
      }

      .st1 {
        fill: #f5f9ff;
      }
    </style>
  </defs>
  <path class="st1" d="M110.2,11.4c-1.9-1.7-5-1.9-6.9,0v-1h-3.6v16.2h3.7v-5.6c2.4,2.1,5.9,1.4,7.7-1.1,1.8-2.5,1.5-6.3-.8-8.4h0ZM105.3,18.7c-2.7-.4-2.8-4.9.2-5.2,3.8-.4,3.9,5.8-.2,5.2Z"/>
  <path class="st1" d="M89.1,16c0,.8.3,1.6,1.1,2,1.6.8,3.7,0,3.7-2V6.4h3.9v9.7c0,7.9-12.6,8-12.7.2,0-3.2,0-6.5,0-9.7,0,0,0,0,0,0h3.7c0,3.2,0,6.5,0,9.6,0,0,0,0,0,0,0-3.1,0-6.3,0-9.5-.2,0-.1-.1,0-.2h0c0,3.2,0,6.4,0,9.6h0Z"/>
  <path class="st1" d="M48.3,17.3l1.5,1.5c-2.6,3.3-7.8,4.2-11.3,1.9-5.1-3.3-4.3-11.5,1.2-13.9,3.3-1.4,7.8-.6,9.9,2.4l-2.5,2.6c-.6-.6-1.3-1.2-2-1.5-2.7-1.2-5.8.4-6,3.4-.3,4.8,5.4,6.1,8.1,2.6l1,1h0Z"/>
  <path class="st1" d="M76.6,5.9v7.7l3.4-3.3h4.4l-4.8,4.6,5.3,6.8h-4.4l-3.3-4.5c0-.1,0,0-.1,0,0,0-.4.4-.4.5v4h-3.7V5.9h3.7Z"/>
  <path class="st1" d="M69.1,17.2c.2,0,2.6,1.5,3,1.7-1.9,3.7-7.7,4.1-10.3,1-1.8-2.1-1.7-5.8,0-7.9,2.7-3.1,8.6-2.7,10.3,1.3l-2.8,1.5c-.3-.2-.5-.6-.8-.8-2-1.8-5.1.2-4.2,2.9.6,1.8,3.1,2.2,4.4.9.1-.1.4-.6.5-.7h0Z"/>
  <rect class="st1" x="50.6" y="5.9" width="3.6" height="15.9"/>
  <rect class="st1" x="55.9" y="10.3" width="3.7" height="11.4"/>
  <path class="st1" d="M57.5,5.1c2.9-.2,3,4.1.2,4.2s-3-4-.2-4.2Z"/>
  <path class="st1" d="M85.1,6.6v-.2h3.9v9.6s0-.1,0-.2V6.5c0,0,0,9.6,0,9.6h0V6.6h-3.8,0Z"/>
  <polygon class="st1" points="19 1.4 28.3 9.6 25.1 13.1 18.8 7.6 12.3 13.1 9.1 9.8 18.5 1.4 19 1.4"/>
  <path class="st1" d="M28.5,19.8c-2.3,3.8-6,5.7-9.8,5.7h-.1c-3.8,0-7.5-1.9-9.8-5.7l3.7-2.8c1.4,2.5,3.8,3.6,6.1,3.6h.1c2.4,0,4.8-1.2,6.1-3.6l3.7,2.8Z"/>
  <polyline class="st0" points="-.6 38.1 -.6 36.5 -.6 31.6 -.6 27.2"/>
</svg>