<?xml version="1.0" encoding="UTF-8"?>
<svg id="Layer_1" xmlns="http://www.w3.org/2000/svg" version="1.1" viewBox="0 0 121 28">
  <!-- Generator: Adobe Illustrator 29.1.0, SVG Export Plug-In . SVG Version: 2.1.0 Build 142)  -->
  <defs>
    <style>
      .st0 {
        fill: #003eba;
      }
    </style>
  </defs>
  <path class="st0" d="M102.4,9.1c-5.2.3-7.4,5.1-6.2,9.8,1.7,6.6,11.3,6.8,13.1.1,1.4-5.1-1.2-10.3-6.9-10ZM101.7,20.2c-2.6-1-2.6-7.1.8-7.4,4.8-.5,4.1,9.3-.8,7.4Z"/>
  <path class="st0" d="M67.3,17.8c3.5.4,9.6.9,9-4.3-.3-2.8-3.6-4.5-6.2-4.4-5.1.2-7.4,4.7-6.7,9.3,1,6,7.7,6.2,12.4,4.7v-3.5c-2.7,1-7.9,2.1-8.6-1.9h0ZM67.5,14.5c.3-1,1.2-2,2.3-2.2,1.2-.2,2.6.4,2.6,1.8,0,2.2-3.7,1.8-5.2,1.6-.2-.1.1-1,.2-1.2h0Z"/>
  <polygon class="st0" points="52.1 5.4 52.1 9.2 47.6 9.2 47.6 23.7 43.2 23.7 43.2 9.2 38.7 9.2 38.7 5.4 52.1 5.4"/>
  <path class="st0" d="M92.1,4v15.3s.2.4.2.4c.4.5,1.2.5,1.7.5v3.5c-1.9.4-4.4.2-5.5-1.7-.1-.3-.5-1.2-.5-1.5V4h4Z"/>
  <path class="st0" d="M83.6,4v15.1c0,0,.2.5.2.6.3.5,1.2.5,1.7.4v3.5c-2.1.4-4.8.2-5.6-2.1,0-.2-.3-1-.3-1.2V4s4,0,4,0Z"/>
  <path class="st0" d="M61.8,9.3v4.2h-1.8c-.6,0-1.7.6-2,1.1,0,.2-.3.9-.3,1v8h-4v-14.2h4v2.6l.8-1.4c.8-1,2-1.6,3.3-1.4h0Z"/>
  <path class="st0" d="M29,4.1h-15.5c-1.2,0-2.2,1-2.2,2.2v15.5c0,1.2,1,2.2,2.2,2.2h15.5c1.2,0,2.2-1,2.2-2.2V6.3c0-1.2-1-2.2-2.2-2.2ZM20.1,18.7c0,.5-.4.9-.9.9h-3.2c-.5,0-.9-.4-.9-.9v-9.4c0-.5.4-.9.9-.9h3.2c.5,0,.9.4.9.9v9.4ZM27.5,14c0,.5-.4.9-.9.9h-3.2c-.5,0-.9-.4-.9-.9v-4.6c0-.5.4-.9.9-.9h3.2c.5,0,.9.4.9.9v4.6Z"/>
</svg>