<?xml version="1.0" encoding="UTF-8"?>
<svg id="Layer_1" xmlns="http://www.w3.org/2000/svg" version="1.1" viewBox="0 0 121 28">
  <!-- Generator: Adobe Illustrator 29.1.0, SVG Export Plug-In . SVG Version: 2.1.0 Build 142)  -->
  <defs>
    <style>
      .st0 {
        fill: #f5f9ff;
      }
    </style>
  </defs>
  <path class="st0" d="M22.2,13.5c.5-3.3,2.1-6.5,4.6-8.7,1.8-1.5,4-2.6,6.3-2.9s2.4-.2,3.5,0,1.2.2,1.7.4.7.5,1,.9c1.1,1.1,1.6,2.9,1.1,4.4-.5,1.8-2.3,3.1-4.2,3.2,0-1.1.6-2.1.9-3.2s.4-2.3-.3-3.2c-1.2-1.5-3.5-.8-5.1.3-3.9,2.8-6.1,7.7-5.6,12.5.2,2.6,1.5,5.4,4,6.3,1.7.6,3.6.2,5.1-.9s2.5-2.5,3.4-4.2c.8-1.5,1.3-3.1,2.1-4.6s2-2.8,3.6-3.4,3.6-.2,4.5,1.3c.7-1,1.9-2,3-1.5,1.1.6.8,2.2.4,3.3-.8,2.3-1.5,4.7-1.6,7.1,0,.3,0,.5.1.8.5.7,1.5,0,2-.6,1.6-2.1,2.6-4.7,2.9-7.3.1-1.3.4-3.1,1.7-3.4.9-.2,1.9.6,2.1,1.6s0,1.9-.2,2.9c1-1.7,2.5-3.1,4.2-4.1.6-.3,1.2-.6,1.8-.5.8.1,1.5.9,1.7,1.7s0,1.7,0,2.5c-.3,1.9-.6,3.9-.9,5.8,0,.4-.1.9.2,1.2.5.4,1.1,0,1.5-.5,1.6-2,2.7-4.4,3-6.9.1-1,.2-2,.7-2.8s1.6-1.4,2.4-.9c.9.6.8,1.9.7,3-.3,2.8,0,5.6.9,8.3,1.3-1.1,2.5-2.5,3.3-4,.2-.4.4-.9.4-1.4,0-.5-.4-.9-.6-1.3-1-1.4-1.6-3.3-1.1-5s2.7-2.8,4.2-2c1.1.6,1.5,2,1.4,3.2s-.7,2.4-1.3,3.5c1,.3,2.2-.2,3-1s1.4-1.7,2.2-2.4c1.7-1.4,4.8-1.3,5.8.7.8-1,2.3-2.2,3.4-1.3.9.7.5,2.2,0,3.3-1,2.7-1.5,5.5-1.4,8.4,1.7-.5,3-2.2,3.2-4,1.1.4,1.1,2,.5,3.1-.7,1.4-2.1,2.6-3.7,2.8s-3.3-.7-3.9-2.2c-1.1,1.4-2.8,2.6-4.5,2.3-1.6-.3-2.7-1.8-3-3.4s0-3.2.3-4.8c-1.2-.3-2.4.4-3.1,1.3s-1.3,2-1.9,3c-.9,1.4-2.1,2.6-3.6,3.4-.6.3-1.3.6-1.9.3-.4-.2-.7-.6-.9-1-.8-1.4-1.2-3-1.3-4.6-1.1,1.5-1.9,3.3-3.3,4.5s-4,1.4-4.9-.2c-.4-.7-.4-1.6-.3-2.4.2-2.5.5-4.9,1-7.3-2.5,1.8-4.3,4.5-5.1,7.5-.2.9-.4,1.8-.9,2.5s-1.5,1.3-2.3.9c-.8-.3-1.1-1.4-1.3-2.3-.6,1.4-2.1,2.3-3.6,2.3s-3-.9-3.6-2.3c-.7,1.6-2.5,2.6-4.2,2.3s-3.1-1.8-3.2-3.6c-1.3,2.2-3.3,4.1-5.7,5.1s-5.3.8-7.5-.6c-2.8-1.8-4.1-5.4-4.1-8.7,0-.9,0-1.9.2-2.8ZM80.8,9.5c-1.6.2-1.2,3.2-.4,4,.4-1.4.6-2.6.4-4ZM43.7,21.5c1.6,1.5,3.3-2.4,3.6-3.5s1.3-5.3-.3-5.7-5.3,7.4-3.4,9.2ZM87.8,21.5c1.8,1.6,3.8-3.8,4-5.1s.3-3.9-.6-4.1c-2.8.1-5,7.7-3.4,9.2Z"/>
</svg>