<?xml version="1.0" encoding="UTF-8"?>
<svg id="Layer_1" xmlns="http://www.w3.org/2000/svg" version="1.1" viewBox="0 0 121 28">
  <!-- Generator: Adobe Illustrator 29.1.0, SVG Export Plug-In . SVG Version: 2.1.0 Build 142)  -->
  <defs>
    <style>
      .st0 {
        fill: #003eba;
      }
    </style>
  </defs>
  <path class="st0" d="M104.73,21.11c-.23.75-2.18-.07-2.55-.68-.29-.49-.45-2.08-.5-2.73-.12-1.77.31-4.68-.04-6.23-.09-.39-.88-1.26-1.22-1.46-1.55-.95-4-.17-4.39,1.68-.43,2.05.45,7.11-.4,8.56-.43.73-1.68,1.31-2.52,1.1V6.72c.98-.54,2.05.85,2.57.86.34.01,1.04-.53,1.49-.66,2.32-.68,4.2.17,6.04,1.55.79-.34,1.26-.96,2.12-1.28,2.73-1.04,5.94-.28,7.38,2.36.14.26.8,1.74.8,1.89v9.67c0,.66-1.92.09-2.41-.64-1.17-1.74.1-6.7-.67-9-.69-2.04-3.56-2.55-4.98-.94-.15.17-.71,1.3-.71,1.43v9.14Z"/>
  <path class="st0" d="M60.21,6.69c1.13.19,1.85,1.35,1.88,2.44.02.78-1.49,1.69-1.88,2.39l-6.81,6.63c-.18.1.16.36.18.36h7.7c.07,0,1.05.71,1.13.84.19.32.54,2.03.21,2.03h-11.91c-1.1,0-2.39-1.93-1.74-3,2.07-2.43,4.57-4.47,6.79-6.74.38-.38,1.1-1.15,1.41-1.55.14-.18.35-.23.27-.54h-7.79c-.05,0-.8-.44-.9-.53-.64-.6-.68-1.52-.62-2.33h12.09Z"/>
  <path class="st0" d="M73.67,8.01c-8.37-5.62-16.19,6.83-8.52,12.01,8.36,5.64,16.2-6.85,8.52-12.01ZM72.13,17.53c-2.89,2.3-7.25.06-7.18-3.59.08-3.89,4.9-5.82,7.65-3.07,1.81,1.8,1.52,5.07-.47,6.66Z"/>
  <path class="st0" d="M89.15,8.01c-8.37-5.62-16.19,6.83-8.52,12.01,8.36,5.64,16.2-6.85,8.52-12.01ZM87.61,17.53c-2.89,2.3-7.25.06-7.18-3.59.08-3.89,4.9-5.82,7.65-3.07,1.81,1.8,1.52,5.07-.47,6.66Z"/>
  <g>
    <path class="st0" d="M30.39,6.59c.44.71.65,1.63.79,2.37.39,2.13.42,4.3.39,6.46-.03,2.17-.11,4.35-.41,6.5-.06.41-.15.87-.48,1.12-.23.17-.54.21-.83.23-4.97.45-9.97.3-14.95.09-1.88-.08-3.92-.23-5.31-1.49-.77-.7-1.24-1.66-1.54-2.65-.56-1.85-.56-3.83-.55-5.76,0-1.81.01-3.63.02-5.44,0-.94.06-2.01.75-2.65.59-.55,1.47-.62,2.27-.65,2.2-.1,4.39-.17,6.59-.23,2.61-.07,5.23-.11,7.83.14,1.49.14,3.02.37,4.39,1,.44.2.78.55,1.03.97Z"/>
    <path class="st0" d="M40.8,5.97c.06.2.11.4.13.58.19,1.22.14,2.47.1,3.7-.13,3.53-.26,7.07-.39,10.6-.02.44-.03.89-.18,1.3-.28.81-1,1.12-1.82.89-.49-.13-.92-.43-1.31-.75-.75-.61-1.44-1.25-2.11-1.95-.92-.96-2.05-1.83-2.55-3.1-.44-1.13-.31-2.38-.3-3.59,0-1.37-.13-2.81.5-4.03.51-.99,1.45-1.67,2.37-2.3,1.07-.74,2.16-1.45,3.25-2.15.26-.16.52-.33.82-.4.82-.19,1.28.5,1.5,1.2Z"/>
  </g>
</svg>