<?xml version="1.0" encoding="UTF-8"?>
<svg id="Layer_1" xmlns="http://www.w3.org/2000/svg" version="1.1" viewBox="0 0 121 28">
  <!-- Generator: Adobe Illustrator 29.1.0, SVG Export Plug-In . SVG Version: 2.1.0 Build 142)  -->
  <defs>
    <style>
      .st0 {
        fill: #f5f9ff;
      }
    </style>
  </defs>
  <path class="st0" d="M15.4,13l.19-.05c1.41-.42,2.79-.93,4.13-1.52,1.37-.54,2.65-1.26,3.8-2.17,1.23-.98,2.15-2.28,2.67-3.77.11-.24.19-.5.24-.76-1.85,2.53-9.18,2.79-9.18,2.79l1.73-1.59c-5.04.02-9.94,1.61-14.03,4.55,2.77.3,5.37,1.46,7.44,3.33.99-.31,2.01-.53,3-.8M26.9,12.75c-4.66-.22-9.33.38-13.79,1.76.94.98,1.72,2.09,2.32,3.31,3.69-2.06,8.82-4.69,11.47-5.05M15.89,18.87c.44,1.13.72,2.31.83,3.51l6.44-6.62-7.28,3.11ZM19.27,22.11v-.07s-.01-.06-.03-.08c-.01-.02-.04-.04-.07-.04h.07s.06-.06.05-.11c0-.06-.03-.11-.08-.13-.04,0-.09,0-.14,0h-.19v.5h.1v-.18h.07s.06,0,.09,0c.03.02.05.06.04.1v.07h.1l-.02-.07ZM18.99,21.73h.06s.07,0,.1,0c.04.02.05.07.02.11,0,0-.01.02-.02.02h-.16v-.13Z"/>
  <path class="st0" d="M19.39,21.58c-.17-.17-.45-.17-.62,0-.18.17-.19.46-.02.64.17.18.46.19.64.02.17-.17.17-.45,0-.62M19.07,22.32c-.1,0-.19-.04-.26-.11-.14-.15-.14-.38,0-.53.14-.14.38-.14.52,0h0c.14.15.14.38,0,.53-.07.07-.16.11-.26.11"/>
  <path class="st0" d="M66.05,15.99c-1.63,0-2.95-1.32-2.95-2.95s1.32-2.95,2.95-2.95,2.95,1.32,2.95,2.95-1.32,2.95-2.95,2.95ZM66.05,6.86c-3.4.04-6.12,2.83-6.08,6.22.04,3.4,2.83,6.12,6.22,6.08.98-.01,1.94-.26,2.81-.72v.75c0,1.63-1.32,2.95-2.95,2.95-.89,0-1.61.72-1.61,1.61s.72,1.61,1.61,1.61h0c3.39-.01,6.14-2.76,6.15-6.15v-6.15c-.01-3.39-2.76-6.14-6.15-6.15v-.05ZM35.66,15.99c-1.63,0-2.95-1.32-2.96-2.95,0-1.63,1.32-2.95,2.95-2.96s2.95,1.32,2.96,2.95-1.32,2.95-2.95,2.96h0ZM35.66,6.86c-3.39.01-6.14,2.76-6.15,6.15v8.79c0,.89.72,1.61,1.61,1.61.89,0,1.61-.72,1.61-1.61h0v-3.37c3,1.59,6.72.44,8.31-2.57s.44-6.72-2.57-8.31c-.86-.45-1.82-.7-2.79-.71v.02ZM52.96,6.86c-3.39.01-6.14,2.76-6.15,6.15v4.56c0,.89.72,1.61,1.61,1.61.89,0,1.61-.72,1.61-1.61v-4.54c0-1.63,1.32-2.95,2.95-2.95s2.95,1.32,2.95,2.95v4.56c-.05.89.63,1.64,1.52,1.69s1.64-.63,1.69-1.52c0-.06,0-.11,0-.17v-4.56c-.01-3.39-2.76-6.14-6.15-6.15M92.24,15.93c-1.63,0-2.95-1.32-2.95-2.95s1.32-2.95,2.95-2.95h0c1.63,0,2.95,1.32,2.95,2.95s-1.32,2.95-2.95,2.95ZM92.24,6.81c-3.4,0-6.15,2.75-6.15,6.15s2.75,6.15,6.15,6.15,6.15-2.75,6.15-6.15-2.75-6.15-6.15-6.15ZM79.14,15.99c-1.63,0-2.95-1.32-2.95-2.95s1.32-2.95,2.95-2.95,2.95,1.32,2.95,2.95-1.32,2.95-2.95,2.95h0ZM83.7,2.64c-.89,0-1.61.72-1.61,1.61h0v3.36c-2.98-1.62-6.72-.52-8.34,2.46-1.62,2.98-.52,6.72,2.46,8.34,2.98,1.62,6.72.52,8.34-2.46.49-.9.75-1.9.75-2.92V4.25c0-.89-.72-1.61-1.61-1.61h0ZM44.19,6.86c-.89,0-1.61.72-1.61,1.61h0v9.12c0,.89.72,1.61,1.61,1.61.89,0,1.61-.72,1.61-1.61v-9.12c0-.89-.72-1.61-1.61-1.61h0M42.58,4.25c0,.89.72,1.61,1.61,1.61.89,0,1.61-.72,1.61-1.61h0c0-.89-.72-1.61-1.61-1.61-.89,0-1.61.72-1.61,1.61M107.6,19.15c.89,0,1.61-.72,1.61-1.61h0v-6.84c0-.37.3-.67.67-.67,1.63,0,2.95,1.32,2.95,2.95v4.53c0,.89.72,1.61,1.61,1.61s1.61-.72,1.61-1.61v-4.53c-.01-3.39-2.76-6.14-6.15-6.15-.78,0-1.56.15-2.28.44-.72-.29-1.5-.44-2.28-.44-3.39.01-6.14,2.76-6.15,6.15v4.53c0,.89.72,1.61,1.61,1.61s1.61-.72,1.61-1.61v-4.53c0-1.62,1.33-2.93,2.95-2.93.37,0,.67.3.67.67v6.8c0,.89.72,1.61,1.6,1.61h0"/>
</svg>