<?xml version="1.0" encoding="UTF-8"?>
<svg id="Layer_1" xmlns="http://www.w3.org/2000/svg" version="1.1" viewBox="0 0 121 28">
  <!-- Generator: Adobe Illustrator 29.1.0, SVG Export Plug-In . SVG Version: 2.1.0 Build 142)  -->
  <defs>
    <style>
      .st0 {
        fill: #003eba;
      }
    </style>
  </defs>
  <path id="Vector" class="st0" d="M21.71,8.08c-.6-2.06-1.61-3.53-3.01-3.53-1.87,0-4.44,5.25-4.44,5.25l-.17-.04.04-.59c0-.11.01-.34.02-.64.04-1.41.02-2.83-.04-4.24l-.06-1.23s-.02-.04-.04-.04h-1.27s-.04.02-.04.04l-.06,1.23c-.06,1.41-.08,2.82-.04,4.24,0,.29.02.52.02.64l.04.59-.17.04s-2.57-5.25-4.44-5.25c-1.4,0-2.41,1.47-3.01,3.53C2.32,8.17.11,10.33.11,12.99s2.21,4.82,4.97,4.91c.6,2.06,1.61,3.53,3.01,3.53,1.87,0,4.44-5.25,4.44-5.25l.17.04-.04.59c0,.11-.01.34-.02.64-.04,1.41-.02,2.83.04,4.24l.06,1.23s.02.04.04.04h1.27s.04-.02.04-.04l.06-1.23c.06-1.41.08-2.82.04-4.24,0-.29-.02-.52-.02-.64l-.04-.59.17-.04s2.57,5.25,4.44,5.25c1.4,0,2.41-1.47,3.01-3.53,2.75-.09,4.97-2.26,4.97-4.91s-2.21-4.82-4.97-4.91ZM4.71,16.25c-1.68-.25-2.98-1.62-2.98-3.26s1.3-3.02,2.98-3.26c-.18,1.04-.26,2.15-.26,3.26s.09,2.23.26,3.26ZM7.83,6.26c.11-.08.25-.06.38,0,.67.36,3.12,4.18,3.12,4.31l-.12.13c-.73-.51-2.6-1.77-4.54-2.37.36-1.13.79-1.84,1.15-2.08h0ZM8.21,19.72c-.13.07-.26.08-.38,0-.36-.24-.79-.95-1.15-2.08,1.94-.59,3.8-1.86,4.54-2.37l.12.13c0,.13-2.45,3.95-3.12,4.31h0ZM12.06,13.08c-.2.11-4.66,2.73-5.75,3-.15-.89-.25-1.92-.25-3.09s.1-2.2.25-3.09c1.09.27,5.55,2.89,5.75,3v.18h0ZM18.58,6.26c.13-.07.26-.08.38,0,.36.24.79.95,1.15,2.08-1.94.59-3.8,1.86-4.54,2.37l-.12-.13c0-.13,2.45-3.95,3.12-4.31h0ZM18.96,19.72c-.11.08-.25.06-.38,0-.67-.36-3.12-4.18-3.12-4.31l.12-.13c.73.51,2.6,1.77,4.54,2.37-.36,1.13-.79,1.84-1.15,2.08h0ZM20.48,16.08c-1.09-.27-5.55-2.89-5.75-3v-.18c.2-.11,4.66-2.73,5.75-3,.15.89.25,1.92.25,3.09s-.1,2.2-.25,3.09h0ZM22.08,16.26c.18-1.04.26-2.15.26-3.26s-.09-2.23-.26-3.26c1.68.25,2.98,1.62,2.98,3.26s-1.3,3.02-2.98,3.26ZM54.51,5.33h2.34v2.33h-2.34v-2.33ZM100.87,10.59c-.86-.49-1.81-.74-2.86-.74s-2,.25-2.86.74c-.86.5-1.53,1.17-2.02,2.01-.49.84-.73,1.75-.73,2.73s.24,1.89.71,2.73c.47.84,1.14,1.52,2,2.01h0c.86.49,1.83.74,2.91.74s2.05-.25,2.91-.75,1.53-1.17,2-2.01c.47-.83.71-1.74.71-2.72s-.25-1.89-.74-2.73c-.49-.84-1.16-1.52-2.02-2.01h0ZM100.81,16.97c-.29.51-.68.91-1.17,1.21h0c-.49.3-1.03.44-1.63.44s-1.14-.15-1.63-.44c-.49-.3-.88-.7-1.17-1.21-.29-.51-.44-1.03-.44-1.64s.14-1.16.43-1.66c.28-.5.68-.9,1.17-1.19.5-.29,1.04-.44,1.64-.44s1.14.15,1.64.44c.5.29.89.69,1.17,1.19.28.5.43,1.08.43,1.66s-.15,1.13-.44,1.64h0ZM88.81,5.33h2.34v15.29h-2.34V5.33ZM120.89,10.04l-3.91,10.58h-2.34l-2.56-7.49-2.56,7.49h-2.34l-3.91-10.58h2.43l2.7,7.69,2.6-7.69h2.28l2.58,7.69,2.72-7.69h2.32,0ZM44.25,5.33l-6.34,15.29h-2.55l-6.34-15.29h2.66l5.01,12.39,5.01-12.39h2.55,0ZM86.55,5.33h.71v2h-.55c-.52,0-.94.15-1.25.44-.31.29-.52.74-.62,1.35l-.16.93h2.58v2.02h-2.94l-1.5,8.56h0l-.17.95c-.2,1.13-.66,1.98-1.36,2.55h0c-.71.57-1.58.85-2.6.85-.77,0-1.3,0-1.6-.02l.35-2h1.08c.52,0,.94-.15,1.25-.44.31-.29.52-.74.62-1.35l1.6-9.11h-1.73v-2.02h2.09l.24-1.34c.2-1.13.65-1.98,1.36-2.55h0c.71-.57,1.58-.83,2.6-.83h0ZM54.51,10.04h2.34v10.58h-2.34v-10.58ZM50.6,10.59c-.86-.49-1.81-.74-2.86-.74s-2,.25-2.86.74c-.86.5-1.53,1.17-2.02,2.01-.49.84-.73,1.75-.73,2.73s.24,1.89.71,2.73c.47.84,1.14,1.52,2,2.01h0c.86.49,1.83.74,2.91.74s2.04-.25,2.9-.75c.86-.5,1.53-1.17,2-2.01.47-.83.71-1.74.71-2.72s-.24-1.89-.73-2.73c-.49-.84-1.16-1.52-2.02-2.01h0ZM50.54,16.97c-.29.51-.68.91-1.17,1.21h0c-.49.3-1.03.44-1.63.44s-1.14-.15-1.63-.44c-.49-.3-.88-.7-1.17-1.21-.29-.51-.44-1.03-.44-1.64s.14-1.16.42-1.66c.28-.5.67-.9,1.17-1.19.5-.29,1.04-.44,1.64-.44s1.14.15,1.64.44c.5.29.89.69,1.17,1.19.28.5.42,1.08.42,1.66s-.15,1.13-.44,1.64h0ZM79.12,17.81c.07-.17.14-.34.19-.52h-2.34c-.07.14-.16.27-.26.39-.27.35-.61.62-1.03.82-.42.2-.84.25-1.35.25-.58,0-1.13-.14-1.64-.4-.51-.27-.92-.63-1.24-1.1-.27-.39-.43-.83-.47-1.3h8.54c.06-1.13-.12-2.17-.51-3.09h0c-.4-.93-1.01-1.66-1.83-2.2-.82-.54-1.81-.81-2.96-.81-1.04,0-1.98.24-2.82.73-.84.49-1.51,1.15-1.99,1.98-.48.83-.72,1.74-.72,2.73,0,.23.01.44.04.66.08.75.31,1.46.67,2.11.47.84,1.14,1.51,2,2.01.86.49,1.83.75,2.93.75,1.15,0,2.13-.27,2.96-.81.82-.54,1.43-1.27,1.83-2.2h0ZM71.23,13.86c.18-.57.52-1.05,1-1.42.48-.37,1.13-.56,1.96-.56.51,0,.97.1,1.4.3.42.2.76.47,1.03.82.27.34.45.74.55,1.18h-6.03c.03-.1.06-.2.09-.31h0ZM60.83,13.66c-.26.5-.39,1.05-.39,1.65s.13,1.14.39,1.65c.25.5.61.9,1.07,1.19.46.29.98.44,1.56.44s1.07-.12,1.49-.36c.41-.24.72-.57.92-.98h2.55c-.23.64-.55,1.22-.98,1.75-.43.53-.98.96-1.66,1.29-.68.33-1.48.49-2.39.49-.99,0-1.9-.24-2.72-.73-.83-.49-1.47-1.15-1.94-1.99-.47-.83-.7-1.75-.7-2.74s.24-1.9.7-2.74c.47-.83,1.11-1.5,1.94-1.99.82-.49,1.73-.73,2.72-.73.91,0,1.7.16,2.39.49.68.32,1.24.75,1.66,1.29.42.53.75,1.12.98,1.75h-2.55c-.2-.41-.5-.74-.92-.98-.41-.24-.91-.36-1.49-.36s-1.1.15-1.56.44c-.46.29-.82.69-1.07,1.19h0Z"/>
</svg>